# Blender v2.77 (sub 0) OBJ File: ''
# www.blender.org
mtllib gizmo.mtl
o Cube
v 0.010000 -0.010000 -0.010000
v 0.010000 -0.010000 0.010000
v -0.010000 -0.010000 0.010000
v -0.010000 -0.010000 -0.010000
v 0.010000 0.010000 -0.010000
v 0.010000 0.010000 0.010000
v -0.010000 0.010000 0.010000
v -0.010000 0.010000 -0.010000
v 0.010000 -0.010000 0.010000
v -0.010000 -0.010000 0.010000
v 0.010000 0.010000 0.010000
v -0.010000 0.010000 0.010000
v 0.010000 -0.010000 1.010000
v -0.010000 -0.010000 1.010000
v 0.010000 0.010000 1.010000
v -0.010000 0.010000 1.010000
v 1.010000 -0.009999 -0.009999
v 1.010000 -0.009999 0.010002
v 1.010000 0.010001 -0.009999
v 1.010000 0.010001 0.010002
v 0.010000 1.010000 -0.010000
v 0.010000 1.010000 0.010000
v -0.010000 1.010000 -0.010000
v -0.010000 1.010000 0.010000
vn 0.0000 -1.0000 0.0000
vn -1.0000 0.0000 0.0000
vn -0.0000 1.0000 0.0000
vn 0.0000 0.0000 1.0000
vn 0.0000 0.0000 -1.0000
vn 1.0000 0.0000 0.0000
usemtl Material
s off
f 1//1 2//1 3//1 4//1
f 8//2 7//2 24//2 23//2
f 5//3 6//3 20//3 19//3
f 7//4 3//4 10//4 12//4
f 3//2 7//2 8//2 4//2
f 5//5 1//5 4//5 8//5
f 11//3 12//3 16//3 15//3
f 2//4 6//4 11//4 9//4
f 3//4 2//4 9//4 10//4
f 6//4 7//4 12//4 11//4
f 13//4 15//4 16//4 14//4
f 9//6 11//6 15//6 13//6
f 12//2 10//2 14//2 16//2
f 10//1 9//1 13//1 14//1
f 17//6 19//6 20//6 18//6
f 6//4 2//4 18//4 20//4
f 1//5 5//5 19//5 17//5
f 2//1 1//1 17//1 18//1
f 21//3 23//3 24//3 22//3
f 5//5 8//5 23//5 21//5
f 7//4 6//4 22//4 24//4
f 6//6 5//6 21//6 22//6
